<mxfile host="app.diagrams.net" modified="2024-01-08T11:52:02.224Z" agent="Mozilla/5.0 (Windows NT 10.0; Win64; x64; rv:121.0) Gecko/20100101 Firefox/121.0" etag="broP_C2j0LwRKViY-aTr" version="22.1.17" type="github">
  <diagram id="07fea595-8f29-1299-0266-81d95cde20df" name="Page-1">
    <mxGraphModel dx="4640" dy="3490" grid="1" gridSize="10" guides="1" tooltips="1" connect="1" arrows="1" fold="1" page="1" pageScale="1" pageWidth="1169" pageHeight="827" background="#ffffff" math="0" shadow="0">
      <root>
        <mxCell id="0" />
        <mxCell id="1" parent="0" />
        <mxCell id="obx4LxaeS1nJqC5iqsvq-8" value="&lt;div style=&quot;font-size: 17px;&quot;&gt;&lt;font color=&quot;#009900&quot; style=&quot;font-size: 17px;&quot;&gt;&lt;br&gt;&lt;/font&gt;&lt;/div&gt;&lt;div style=&quot;font-size: 11px;&quot;&gt;&lt;font color=&quot;#009900&quot; style=&quot;font-size: 11px;&quot;&gt;&amp;nbsp;&amp;nbsp;&amp;nbsp; Librariey&lt;/font&gt;&lt;/div&gt;&lt;div style=&quot;font-size: 11px;&quot;&gt;&lt;font color=&quot;#009900&quot; style=&quot;font-size: 11px;&quot;&gt;&amp;nbsp;&amp;nbsp;&amp;nbsp; Links&lt;br&gt;&lt;/font&gt;&lt;/div&gt;" style="ellipse;shape=cloud;whiteSpace=wrap;html=1;fillColor=#cdeb8b;strokeColor=none;fillOpacity=70;" parent="1" vertex="1">
          <mxGeometry x="1191" y="-907" width="120" height="230" as="geometry" />
        </mxCell>
        <mxCell id="obx4LxaeS1nJqC5iqsvq-7" value="&lt;div style=&quot;font-size: 11px;&quot;&gt;&lt;font style=&quot;font-size: 11px;&quot; color=&quot;#ff6666&quot;&gt;&lt;br&gt;&lt;/font&gt;&lt;/div&gt;&lt;div style=&quot;font-size: 11px;&quot;&gt;&lt;font style=&quot;font-size: 11px;&quot; color=&quot;#ff6666&quot;&gt;&lt;br&gt;&lt;/font&gt;&lt;/div&gt;&lt;div style=&quot;font-size: 11px;&quot;&gt;&lt;font style=&quot;font-size: 11px;&quot; color=&quot;#ff6666&quot;&gt;&lt;br&gt;&lt;/font&gt;&lt;/div&gt;&lt;div style=&quot;font-size: 11px;&quot;&gt;&lt;font style=&quot;font-size: 11px;&quot; color=&quot;#ff6666&quot;&gt;&lt;br&gt;&lt;/font&gt;&lt;/div&gt;&lt;div style=&quot;font-size: 16px;&quot;&gt;&lt;font style=&quot;font-size: 16px;&quot; color=&quot;#ff6666&quot;&gt;&lt;br&gt;&lt;/font&gt;&lt;/div&gt;&lt;div style=&quot;font-size: 16px;&quot;&gt;&lt;font style=&quot;font-size: 16px;&quot; color=&quot;#ff6666&quot;&gt;&lt;br&gt;&lt;/font&gt;&lt;/div&gt;&lt;div style=&quot;font-size: 11px;&quot;&gt;&lt;font style=&quot;font-size: 11px;&quot; color=&quot;#ff6666&quot;&gt;&amp;nbsp;&amp;nbsp;&amp;nbsp; Users and Groups&lt;br&gt;&lt;/font&gt;&lt;/div&gt;&lt;div&gt;&lt;font color=&quot;#ff6666&quot;&gt;&lt;br&gt;&lt;/font&gt;&lt;/div&gt;&lt;div&gt;&lt;font color=&quot;#ff6666&quot;&gt;&lt;br&gt;&lt;/font&gt;&lt;/div&gt;&lt;div&gt;&lt;font color=&quot;#ff6666&quot;&gt;&lt;br&gt;&lt;/font&gt;&lt;/div&gt;&lt;div&gt;&lt;font color=&quot;#ff6666&quot;&gt;&lt;br&gt;&lt;/font&gt;&lt;/div&gt;&lt;div&gt;&lt;font color=&quot;#ff6666&quot;&gt;&lt;br&gt;&lt;/font&gt;&lt;/div&gt;&lt;div&gt;&lt;font color=&quot;#ff6666&quot;&gt;&lt;br&gt;&lt;/font&gt;&lt;/div&gt;" style="rounded=1;whiteSpace=wrap;html=1;arcSize=13;strokeColor=none;fillColor=#f8cecc;fillStyle=auto;shadow=0;glass=0;imageAspect=0;gradientColor=none;" parent="1" vertex="1">
          <mxGeometry x="1218" y="-500" width="112" height="339" as="geometry" />
        </mxCell>
        <mxCell id="KRZMmwawRqASeaeSw63z-6" value="&lt;font color=&quot;#ff9c63&quot; style=&quot;font-size: 11px;&quot;&gt;Repository Links&lt;/font&gt;" style="rounded=1;whiteSpace=wrap;html=1;strokeColor=none;fillColor=#fff2cc;arcSize=9;spacing=3;spacingBottom=12;spacingRight=-16;" parent="1" vertex="1">
          <mxGeometry x="1364" y="505" width="116" height="148" as="geometry" />
        </mxCell>
        <mxCell id="UHulExDoLJq-W7tsx6bJ-13" value="&lt;div style=&quot;font-size: 10px;&quot;&gt;&lt;font style=&quot;font-size: 10px;&quot; color=&quot;#ea6b66&quot;&gt;&lt;br&gt;&lt;/font&gt;&lt;/div&gt;&lt;div style=&quot;font-size: 15px;&quot;&gt;&lt;font style=&quot;font-size: 15px;&quot; color=&quot;#ea6b66&quot;&gt;&lt;br&gt;&lt;/font&gt;&lt;/div&gt;&lt;div style=&quot;font-size: 14px;&quot;&gt;&lt;font style=&quot;font-size: 14px;&quot; color=&quot;#ea6b66&quot;&gt;&lt;br&gt;&lt;/font&gt;&lt;/div&gt;&lt;div style=&quot;font-size: 15px;&quot;&gt;&lt;font style=&quot;font-size: 15px;&quot; color=&quot;#ea6b66&quot;&gt;&lt;br&gt;&lt;/font&gt;&lt;/div&gt;&lt;div style=&quot;font-size: 15px;&quot;&gt;&lt;font style=&quot;font-size: 11px;&quot; color=&quot;#ea6b66&quot;&gt;Boot Process&lt;/font&gt;&lt;/div&gt;" style="rounded=1;whiteSpace=wrap;html=1;fontSize=16;arcSize=8;fillColor=#FAB2AF;strokeColor=none;fillStyle=dots;dashed=1;glass=1;shadow=0;perimeterSpacing=1;horizontal=1;verticalAlign=top;" parent="1" vertex="1">
          <mxGeometry x="1580" y="585" width="220" height="185" as="geometry" />
        </mxCell>
        <mxCell id="HTWnhOGaE7zrA0Xf9so1-1" value="&lt;font style=&quot;font-size: 11px;&quot; color=&quot;#cda2be&quot;&gt;will be stored in RAM&lt;/font&gt;" style="rounded=0;whiteSpace=wrap;html=1;fontSize=12;fillColor=#e1d5e7;strokeColor=#8080c0;glass=0;shadow=0;fillOpacity=45;strokeWidth=0.5;verticalAlign=bottom;labelPosition=center;verticalLabelPosition=middle;align=center;textDirection=ltr;spacing=4;horizontal=1;spacingLeft=-249;fontFamily=Verdana;spacingTop=11;" parent="1" vertex="1">
          <mxGeometry x="220" y="480" width="370" height="470" as="geometry" />
        </mxCell>
        <mxCell id="ZKwDwrUEBNnavj5RqwG0-218" value="Terminal" style="shadow=0;dashed=0;html=1;strokeColor=none;fillColor=#EF8F21;labelPosition=center;verticalLabelPosition=bottom;verticalAlign=top;align=center;outlineConnect=0;shape=mxgraph.veeam.linux;fontSize=16;spacing=-95;" parent="1" vertex="1">
          <mxGeometry x="565" y="-1180" width="70" height="70" as="geometry" />
        </mxCell>
        <mxCell id="ZKwDwrUEBNnavj5RqwG0-242" style="edgeStyle=none;curved=1;rounded=0;orthogonalLoop=1;jettySize=auto;html=1;fontSize=12;startSize=8;endSize=8;" parent="1" source="ZKwDwrUEBNnavj5RqwG0-221" target="ZKwDwrUEBNnavj5RqwG0-218" edge="1">
          <mxGeometry relative="1" as="geometry" />
        </mxCell>
        <mxCell id="ZKwDwrUEBNnavj5RqwG0-221" value="&lt;font style=&quot;font-size: 12px;&quot;&gt;dbus&lt;/font&gt;" style="outlineConnect=0;fillColor=#ffff99;shape=mxgraph.archimate.businessObject;overflow=fill;spacing=25;spacingRight=0;spacingTop=9;spacingBottom=9;spacingLeft=5;html=1;whiteSpace=wrap;labelPosition=center;verticalLabelPosition=middle;align=center;verticalAlign=middle;fontSize=12;fontFamily=Verdana;" parent="1" vertex="1">
          <mxGeometry x="530" y="-1000" width="140" height="60" as="geometry" />
        </mxCell>
        <mxCell id="ZKwDwrUEBNnavj5RqwG0-244" style="edgeStyle=orthogonalEdgeStyle;rounded=0;orthogonalLoop=1;jettySize=auto;html=1;fontSize=12;startSize=8;endSize=8;exitX=0.5;exitY=0;exitDx=0;exitDy=0;exitPerimeter=0;" parent="1" source="ZKwDwrUEBNnavj5RqwG0-222" target="ZKwDwrUEBNnavj5RqwG0-221" edge="1">
          <mxGeometry relative="1" as="geometry">
            <Array as="points">
              <mxPoint x="90" y="-970" />
            </Array>
            <mxPoint x="90" y="19" as="sourcePoint" />
          </mxGeometry>
        </mxCell>
        <mxCell id="ZKwDwrUEBNnavj5RqwG0-222" value="HAL" style="outlineConnect=0;fillColor=#ffff99;shape=mxgraph.archimate.businessObject;overflow=fill;spacing=24;spacingRight=0;spacingTop=16;spacingBottom=9;spacingLeft=5;html=1;whiteSpace=wrap;labelPosition=center;verticalLabelPosition=middle;align=center;verticalAlign=middle;fontFamily=Verdana;" parent="1" vertex="1">
          <mxGeometry x="20" y="481" width="140" height="60" as="geometry" />
        </mxCell>
        <mxCell id="ZKwDwrUEBNnavj5RqwG0-243" style="edgeStyle=none;curved=1;rounded=0;orthogonalLoop=1;jettySize=auto;html=1;fontSize=12;startSize=8;endSize=8;entryX=0.5;entryY=1;entryDx=0;entryDy=0;entryPerimeter=0;exitX=0.5;exitY=0;exitDx=0;exitDy=0;exitPerimeter=0;" parent="1" source="ZKwDwrUEBNnavj5RqwG0-223" target="ZKwDwrUEBNnavj5RqwG0-222" edge="1">
          <mxGeometry relative="1" as="geometry">
            <mxPoint x="52" y="860" as="sourcePoint" />
            <mxPoint x="52" y="541" as="targetPoint" />
          </mxGeometry>
        </mxCell>
        <mxCell id="ZKwDwrUEBNnavj5RqwG0-223" value="dev" style="outlineConnect=0;fillColor=#ffff99;shape=mxgraph.archimate.businessObject;overflow=fill;spacing=25;spacingRight=0;spacingTop=9;spacingBottom=9;spacingLeft=5;html=1;whiteSpace=wrap;labelPosition=center;verticalLabelPosition=middle;align=center;verticalAlign=middle;fontSize=12;fontFamily=Verdana;" parent="1" vertex="1">
          <mxGeometry x="20" y="860" width="140" height="60" as="geometry" />
        </mxCell>
        <mxCell id="ZKwDwrUEBNnavj5RqwG0-224" value="&lt;font style=&quot;font-size: 32px;&quot;&gt;K e r n e l&lt;/font&gt;" style="verticalLabelPosition=bottom;html=1;verticalAlign=top;align=center;shape=mxgraph.floorplan.room;fillColor=strokeColor;fontSize=20;spacing=-64;" parent="1" vertex="1">
          <mxGeometry x="-80" y="1134" width="2670" height="100" as="geometry" />
        </mxCell>
        <mxCell id="ZKwDwrUEBNnavj5RqwG0-226" value="&lt;div style=&quot;font-size: 12px;&quot;&gt;Proc&lt;/div&gt;" style="outlineConnect=0;fillColor=#ffff99;shape=mxgraph.archimate.businessObject;overflow=fill;spacing=25;spacingRight=0;spacingTop=9;spacingBottom=9;spacingLeft=5;html=1;whiteSpace=wrap;labelPosition=center;verticalLabelPosition=middle;align=center;verticalAlign=middle;fontSize=12;fontFamily=Verdana;" parent="1" vertex="1">
          <mxGeometry x="230" y="860" width="140" height="60" as="geometry" />
        </mxCell>
        <mxCell id="ZKwDwrUEBNnavj5RqwG0-227" value="sys" style="outlineConnect=0;fillColor=#ffff99;shape=mxgraph.archimate.businessObject;overflow=fill;spacing=25;spacingRight=0;spacingTop=9;spacingBottom=9;spacingLeft=5;html=1;whiteSpace=wrap;labelPosition=center;verticalLabelPosition=middle;align=center;verticalAlign=middle;fontSize=12;fontFamily=Verdana;" parent="1" vertex="1">
          <mxGeometry x="230" y="770" width="140" height="60" as="geometry" />
        </mxCell>
        <mxCell id="ZKwDwrUEBNnavj5RqwG0-228" value="" style="verticalLabelPosition=bottom;html=1;verticalAlign=top;align=center;shape=mxgraph.floorplan.wall;fillColor=strokeColor;direction=south;fontSize=16;fontFamily=Verdana;" parent="1" vertex="1">
          <mxGeometry x="230" y="830" width="10" height="30" as="geometry" />
        </mxCell>
        <mxCell id="ZKwDwrUEBNnavj5RqwG0-229" value="sys" style="outlineConnect=0;fillColor=#ffff99;shape=mxgraph.archimate.businessObject;overflow=fill;spacing=25;spacingRight=0;spacingTop=9;spacingBottom=9;spacingLeft=5;html=1;whiteSpace=wrap;labelPosition=center;verticalLabelPosition=middle;align=center;verticalAlign=middle;fontSize=12;fontFamily=Verdana;" parent="1" vertex="1">
          <mxGeometry x="440" y="860" width="140" height="60" as="geometry" />
        </mxCell>
        <mxCell id="ZKwDwrUEBNnavj5RqwG0-230" value="usr" style="outlineConnect=0;fillColor=#ffff99;shape=mxgraph.archimate.businessObject;overflow=fill;spacing=25;spacingRight=0;spacingTop=9;spacingBottom=9;spacingLeft=5;html=1;whiteSpace=wrap;labelPosition=center;verticalLabelPosition=middle;align=center;verticalAlign=middle;fontSize=12;fontFamily=Verdana;" parent="1" vertex="1">
          <mxGeometry x="649" y="860" width="140" height="60" as="geometry" />
        </mxCell>
        <mxCell id="ZKwDwrUEBNnavj5RqwG0-231" value="lib" style="outlineConnect=0;fillColor=#ffff99;shape=mxgraph.archimate.businessObject;overflow=fill;spacing=25;spacingRight=0;spacingTop=9;spacingBottom=9;spacingLeft=5;html=1;whiteSpace=wrap;labelPosition=center;verticalLabelPosition=middle;align=center;verticalAlign=middle;fontSize=12;fontFamily=Verdana;" parent="1" vertex="1">
          <mxGeometry x="860" y="860" width="140" height="60" as="geometry" />
        </mxCell>
        <mxCell id="ZKwDwrUEBNnavj5RqwG0-232" value="etc" style="outlineConnect=0;fillColor=#ffff99;shape=mxgraph.archimate.businessObject;overflow=fill;spacing=25;spacingRight=0;spacingTop=9;spacingBottom=9;spacingLeft=5;html=1;whiteSpace=wrap;labelPosition=center;verticalLabelPosition=middle;align=center;verticalAlign=middle;fontSize=12;fontFamily=Verdana;" parent="1" vertex="1">
          <mxGeometry x="1220" y="860" width="140" height="60" as="geometry" />
        </mxCell>
        <mxCell id="ZKwDwrUEBNnavj5RqwG0-234" style="edgeStyle=orthogonalEdgeStyle;rounded=0;orthogonalLoop=1;jettySize=auto;html=1;entryX=0.5;entryY=1;entryDx=0;entryDy=0;entryPerimeter=0;fontSize=12;startSize=8;endSize=8;dashed=1;" parent="1" source="ZKwDwrUEBNnavj5RqwG0-224" target="ZKwDwrUEBNnavj5RqwG0-229" edge="1">
          <mxGeometry relative="1" as="geometry">
            <Array as="points">
              <mxPoint x="510" y="1050" />
              <mxPoint x="510" y="1050" />
            </Array>
          </mxGeometry>
        </mxCell>
        <mxCell id="ZKwDwrUEBNnavj5RqwG0-236" style="edgeStyle=orthogonalEdgeStyle;rounded=0;orthogonalLoop=1;jettySize=auto;html=1;fontSize=12;startSize=8;endSize=8;exitX=0.165;exitY=0.022;exitDx=0;exitDy=0;exitPerimeter=0;entryX=1;entryY=0.833;entryDx=0;entryDy=0;entryPerimeter=0;dashed=1;" parent="1" source="ZKwDwrUEBNnavj5RqwG0-224" target="ZKwDwrUEBNnavj5RqwG0-227" edge="1">
          <mxGeometry relative="1" as="geometry">
            <mxPoint x="400" y="1070" as="sourcePoint" />
            <mxPoint x="370" y="790" as="targetPoint" />
            <Array as="points">
              <mxPoint x="400" y="1136" />
              <mxPoint x="400" y="820" />
            </Array>
          </mxGeometry>
        </mxCell>
        <mxCell id="ZKwDwrUEBNnavj5RqwG0-245" value="&lt;font style=&quot;font-size: 8px;&quot;&gt;Kernel creates the both&lt;font style=&quot;font-size: 8px;&quot;&gt;&lt;br style=&quot;font-size: 8px;&quot;&gt;&lt;/font&gt;&lt;/font&gt;" style="ellipse;whiteSpace=wrap;html=1;fontSize=8;fillColor=#f8cecc;strokeColor=#ff8040;opacity=40;fillStyle=auto;gradientColor=none;dashed=1;strokeWidth=1;fontStyle=0;fontFamily=Verdana;labelBorderColor=none;labelBackgroundColor=none;" parent="1" vertex="1">
          <mxGeometry x="380" y="1060" width="150" height="50" as="geometry" />
        </mxCell>
        <mxCell id="ZKwDwrUEBNnavj5RqwG0-246" value="&lt;font style=&quot;font-size: 30px;&quot;&gt;The chart of default Directories and Files in Debian-based Linux &lt;/font&gt;" style="text;strokeColor=none;fillColor=none;html=1;align=center;verticalAlign=middle;whiteSpace=wrap;rounded=0;fontSize=16;" parent="1" vertex="1">
          <mxGeometry x="784" y="-1440" width="990" height="90" as="geometry" />
        </mxCell>
        <mxCell id="HTWnhOGaE7zrA0Xf9so1-12" value="&lt;font style=&quot;font-size: 13px;&quot;&gt;cpuinfo&lt;/font&gt;" style="whiteSpace=wrap;html=1;shape=mxgraph.basic.document;fontSize=16;" parent="1" vertex="1">
          <mxGeometry x="230" y="586" width="70" height="60" as="geometry" />
        </mxCell>
        <mxCell id="HTWnhOGaE7zrA0Xf9so1-14" value="" style="endArrow=block;html=1;endFill=1;startArrow=none;startFill=0;edgeStyle=elbowEdgeStyle;elbow=vertical;dashed=1;rounded=0;fontSize=12;startSize=8;endSize=8;curved=1;entryX=0.5;entryY=1;entryDx=0;entryDy=0;entryPerimeter=0;" parent="1" target="ZKwDwrUEBNnavj5RqwG0-223" edge="1">
          <mxGeometry width="100" height="75" relative="1" as="geometry">
            <mxPoint x="20" y="1010" as="sourcePoint" />
            <mxPoint x="90" y="950" as="targetPoint" />
            <Array as="points">
              <mxPoint x="30" y="960" />
            </Array>
          </mxGeometry>
        </mxCell>
        <mxCell id="HTWnhOGaE7zrA0Xf9so1-17" value="udev" style="verticalLabelPosition=bottom;html=1;verticalAlign=top;strokeWidth=2;shape=mxgraph.lean_mapping.physical_pull;pointerEvents=1;fontSize=16;rotation=0;textDirection=ltr;direction=south;flipH=1;flipV=1;spacingTop=-54;fontColor=#696969;" parent="1" vertex="1">
          <mxGeometry x="-5" y="996" width="70" height="70" as="geometry" />
        </mxCell>
        <mxCell id="HTWnhOGaE7zrA0Xf9so1-19" value="" style="edgeStyle=orthogonalEdgeStyle;html=1;endArrow=openThin;elbow=vertical;startArrow=none;endFill=0;strokeColor=#b85450;rounded=0;fontSize=12;startSize=8;endSize=8;exitX=0.25;exitY=1;exitDx=0;exitDy=0;exitPerimeter=0;fillColor=#f8cecc;entryX=0.029;entryY=0.786;entryDx=0;entryDy=0;entryPerimeter=0;" parent="1" source="ZKwDwrUEBNnavj5RqwG0-229" target="HTWnhOGaE7zrA0Xf9so1-17" edge="1">
          <mxGeometry width="100" relative="1" as="geometry">
            <mxPoint x="160" y="991.666666666667" as="sourcePoint" />
            <mxPoint x="60" y="1064" as="targetPoint" />
            <Array as="points">
              <mxPoint x="475" y="1010" />
              <mxPoint x="220" y="1010" />
              <mxPoint x="220" y="1064" />
            </Array>
          </mxGeometry>
        </mxCell>
        <mxCell id="HTWnhOGaE7zrA0Xf9so1-20" value="" style="edgeStyle=orthogonalEdgeStyle;html=1;endArrow=openThin;elbow=vertical;startArrow=none;endFill=0;strokeColor=#b85450;rounded=0;fontSize=12;startSize=8;endSize=8;exitX=0;exitY=0.75;exitDx=0;exitDy=0;exitPerimeter=0;fillColor=#f8cecc;entryX=0.286;entryY=1;entryDx=0;entryDy=0;entryPerimeter=0;gradientColor=#ea6b66;" parent="1" source="ZKwDwrUEBNnavj5RqwG0-227" target="HTWnhOGaE7zrA0Xf9so1-17" edge="1">
          <mxGeometry width="100" relative="1" as="geometry">
            <mxPoint x="190" y="830" as="sourcePoint" />
            <mxPoint x="110" y="1020" as="targetPoint" />
            <Array as="points">
              <mxPoint x="200" y="815" />
              <mxPoint x="200" y="1046" />
            </Array>
          </mxGeometry>
        </mxCell>
        <mxCell id="HTWnhOGaE7zrA0Xf9so1-21" value="&lt;font style=&quot;font-size: 13px;&quot;&gt;mounts&lt;/font&gt;" style="whiteSpace=wrap;html=1;shape=mxgraph.basic.document;fontSize=16;fillColor=#CCFFFF;strokeColor=#B09500;fontColor=#000000;" parent="1" vertex="1">
          <mxGeometry x="230" y="495" width="70" height="60" as="geometry" />
        </mxCell>
        <mxCell id="HTWnhOGaE7zrA0Xf9so1-23" value="" style="verticalLabelPosition=bottom;html=1;verticalAlign=top;align=center;shape=mxgraph.floorplan.wall;fillColor=strokeColor;direction=south;fontSize=16;fontFamily=Verdana;" parent="1" vertex="1">
          <mxGeometry x="1220" y="830" width="10" height="30" as="geometry" />
        </mxCell>
        <mxCell id="HTWnhOGaE7zrA0Xf9so1-24" value="shadow" style="whiteSpace=wrap;html=1;shape=mxgraph.basic.document;fontSize=13;" parent="1" vertex="1">
          <mxGeometry x="1220" y="-313" width="70" height="60" as="geometry" />
        </mxCell>
        <mxCell id="HTWnhOGaE7zrA0Xf9so1-25" value="udev-layer creates device nodes and assigns them names and manages their permissions." style="ellipse;whiteSpace=wrap;html=1;fontSize=8;fillColor=#f8cecc;strokeColor=#ff8040;opacity=40;fillStyle=auto;gradientColor=none;dashed=1;strokeWidth=1;fontStyle=0;fontFamily=Verdana;labelBorderColor=none;labelBackgroundColor=none;" parent="1" vertex="1">
          <mxGeometry x="93" y="994" width="90" height="90" as="geometry" />
        </mxCell>
        <mxCell id="-j2Ckfl4-id5HFxG22mZ-1" value="var" style="outlineConnect=0;fillColor=#ffff99;shape=mxgraph.archimate.businessObject;overflow=fill;spacing=25;spacingRight=0;spacingTop=9;spacingBottom=9;spacingLeft=5;html=1;whiteSpace=wrap;labelPosition=center;verticalLabelPosition=middle;align=center;verticalAlign=middle;fontSize=12;fontFamily=Verdana;" parent="1" vertex="1">
          <mxGeometry x="1870" y="860" width="140" height="60" as="geometry" />
        </mxCell>
        <mxCell id="4TEvs44_imnydxZ_aiSz-2" value="&lt;div&gt;systemd&lt;/div&gt;" style="outlineConnect=0;fillColor=#ffff99;shape=mxgraph.archimate.businessObject;overflow=fill;spacing=25;spacingRight=0;spacingTop=9;spacingBottom=9;spacingLeft=5;html=1;whiteSpace=wrap;labelPosition=center;verticalLabelPosition=middle;align=center;verticalAlign=middle;fontSize=12;fontFamily=Verdana;" parent="1" vertex="1">
          <mxGeometry x="860" y="769" width="140" height="60" as="geometry" />
        </mxCell>
        <mxCell id="4TEvs44_imnydxZ_aiSz-3" value="" style="verticalLabelPosition=bottom;html=1;verticalAlign=top;align=center;shape=mxgraph.floorplan.wall;fillColor=strokeColor;direction=south;fontSize=16;fontFamily=Verdana;" parent="1" vertex="1">
          <mxGeometry x="860" y="829" width="10" height="30" as="geometry" />
        </mxCell>
        <mxCell id="4TEvs44_imnydxZ_aiSz-4" value="1" style="outlineConnect=0;fillColor=#ffff99;shape=mxgraph.archimate.businessObject;overflow=fill;spacing=25;spacingRight=0;spacingTop=9;spacingBottom=9;spacingLeft=5;html=1;whiteSpace=wrap;labelPosition=center;verticalLabelPosition=middle;align=center;verticalAlign=middle;fontSize=12;fontFamily=Verdana;" parent="1" vertex="1">
          <mxGeometry x="230" y="678" width="140" height="60" as="geometry" />
        </mxCell>
        <mxCell id="4TEvs44_imnydxZ_aiSz-8" value="snap" style="outlineConnect=0;fillColor=#ffff99;shape=mxgraph.archimate.businessObject;overflow=fill;spacing=25;spacingRight=0;spacingTop=9;spacingBottom=9;spacingLeft=5;html=1;whiteSpace=wrap;labelPosition=center;verticalLabelPosition=middle;align=center;verticalAlign=middle;fontSize=12;fontFamily=Verdana;" parent="1" vertex="1">
          <mxGeometry x="2240" y="860" width="140" height="60" as="geometry" />
        </mxCell>
        <mxCell id="4TEvs44_imnydxZ_aiSz-9" value="vmlinuz-xx-generic" style="whiteSpace=wrap;html=1;shape=mxgraph.basic.document;fontSize=13;" parent="1" vertex="1">
          <mxGeometry x="1580" y="679" width="70" height="60" as="geometry" />
        </mxCell>
        <mxCell id="4TEvs44_imnydxZ_aiSz-11" value="initrd.img-xx-generic" style="whiteSpace=wrap;html=1;shape=mxgraph.basic.document;fontSize=13;" parent="1" vertex="1">
          <mxGeometry x="1580" y="588" width="70" height="60" as="geometry" />
        </mxCell>
        <mxCell id="4TEvs44_imnydxZ_aiSz-12" value="" style="verticalLabelPosition=bottom;html=1;verticalAlign=top;align=center;shape=mxgraph.floorplan.wall;fillColor=strokeColor;direction=south;fontSize=16;fontFamily=Verdana;" parent="1" vertex="1">
          <mxGeometry x="1580" y="649" width="10" height="30" as="geometry" />
        </mxCell>
        <mxCell id="4TEvs44_imnydxZ_aiSz-13" value="media" style="outlineConnect=0;fillColor=#ffff99;shape=mxgraph.archimate.businessObject;overflow=fill;spacing=25;spacingRight=0;spacingTop=9;spacingBottom=9;spacingLeft=5;html=1;whiteSpace=wrap;labelPosition=center;verticalLabelPosition=middle;align=center;verticalAlign=middle;fontSize=12;fontFamily=Verdana;" parent="1" vertex="1">
          <mxGeometry x="2450" y="860" width="140" height="60" as="geometry" />
        </mxCell>
        <mxCell id="4TEvs44_imnydxZ_aiSz-14" value="" style="verticalLabelPosition=bottom;html=1;verticalAlign=top;align=center;shape=mxgraph.floorplan.wall;fillColor=strokeColor;direction=south;fontSize=16;fontFamily=Verdana;" parent="1" vertex="1">
          <mxGeometry x="1870" y="829" width="10" height="30" as="geometry" />
        </mxCell>
        <mxCell id="4TEvs44_imnydxZ_aiSz-15" value="log" style="outlineConnect=0;fillColor=#ffff99;shape=mxgraph.archimate.businessObject;overflow=fill;spacing=25;spacingRight=0;spacingTop=9;spacingBottom=9;spacingLeft=5;html=1;whiteSpace=wrap;labelPosition=center;verticalLabelPosition=middle;align=center;verticalAlign=middle;fontSize=12;fontFamily=Verdana;" parent="1" vertex="1">
          <mxGeometry x="1870" y="768" width="140" height="60" as="geometry" />
        </mxCell>
        <mxCell id="4TEvs44_imnydxZ_aiSz-22" value="" style="shape=mxgraph.arrows2.wedgeArrow;html=1;bendable=0;startWidth=8.703703703703702;fillColor=strokeColor;defaultFillColor=invert;defaultGradientColor=invert;rounded=0;fontSize=12;startSize=8;endSize=8;curved=1;exitX=1;exitY=0;exitDx=-2.9;exitDy=2.9;exitPerimeter=0;entryX=0.5;entryY=1;entryDx=0;entryDy=0;entryPerimeter=0;" parent="1" target="npKKA7q-95rAuHakI6Xw-19" edge="1">
          <mxGeometry width="100" height="100" relative="1" as="geometry">
            <mxPoint x="995.9999999999999" y="767.9499999999998" as="sourcePoint" />
            <mxPoint x="1045" y="740" as="targetPoint" />
          </mxGeometry>
        </mxCell>
        <mxCell id="etzz7ZQ8cBHT2efS20bH-1" value="" style="verticalLabelPosition=bottom;html=1;verticalAlign=top;align=center;shape=mxgraph.floorplan.wall;fillColor=strokeColor;direction=south;fontSize=16;fontFamily=Verdana;" parent="1" vertex="1">
          <mxGeometry x="1220" y="-343" width="10" height="30" as="geometry" />
        </mxCell>
        <mxCell id="etzz7ZQ8cBHT2efS20bH-2" value="init.d" style="outlineConnect=0;fillColor=#ffff99;shape=mxgraph.archimate.businessObject;overflow=fill;spacing=25;spacingRight=0;spacingTop=9;spacingBottom=9;spacingLeft=5;html=1;whiteSpace=wrap;labelPosition=center;verticalLabelPosition=middle;align=center;verticalAlign=middle;fontSize=12;fontFamily=Verdana;" parent="1" vertex="1">
          <mxGeometry x="1220" y="770" width="140" height="60" as="geometry" />
        </mxCell>
        <mxCell id="etzz7ZQ8cBHT2efS20bH-3" value="" style="verticalLabelPosition=bottom;html=1;verticalAlign=top;align=center;shape=mxgraph.floorplan.wall;fillColor=strokeColor;direction=south;fontSize=16;fontFamily=Verdana;" parent="1" vertex="1">
          <mxGeometry x="1220" y="740" width="10" height="30" as="geometry" />
        </mxCell>
        <mxCell id="etzz7ZQ8cBHT2efS20bH-4" value="rc0.d" style="outlineConnect=0;fillColor=#ffff99;shape=mxgraph.archimate.businessObject;overflow=fill;spacing=25;spacingRight=0;spacingTop=9;spacingBottom=9;spacingLeft=5;html=1;whiteSpace=wrap;labelPosition=center;verticalLabelPosition=middle;align=center;verticalAlign=middle;fontSize=12;fontFamily=Verdana;" parent="1" vertex="1">
          <mxGeometry x="1220" y="588" width="140" height="60" as="geometry" />
        </mxCell>
        <mxCell id="etzz7ZQ8cBHT2efS20bH-5" value="" style="verticalLabelPosition=bottom;html=1;verticalAlign=top;align=center;shape=mxgraph.floorplan.wall;fillColor=strokeColor;direction=south;fontSize=16;fontFamily=Verdana;" parent="1" vertex="1">
          <mxGeometry x="1220" y="558" width="10" height="30" as="geometry" />
        </mxCell>
        <mxCell id="etzz7ZQ8cBHT2efS20bH-6" value="rc1.d" style="outlineConnect=0;fillColor=#ffff99;shape=mxgraph.archimate.businessObject;overflow=fill;spacing=25;spacingRight=0;spacingTop=9;spacingBottom=9;spacingLeft=5;html=1;whiteSpace=wrap;labelPosition=center;verticalLabelPosition=middle;align=center;verticalAlign=middle;fontSize=12;fontFamily=Verdana;" parent="1" vertex="1">
          <mxGeometry x="1220" y="498" width="140" height="60" as="geometry" />
        </mxCell>
        <mxCell id="etzz7ZQ8cBHT2efS20bH-7" value="" style="verticalLabelPosition=bottom;html=1;verticalAlign=top;align=center;shape=mxgraph.floorplan.wall;fillColor=strokeColor;direction=south;fontSize=16;fontFamily=Verdana;" parent="1" vertex="1">
          <mxGeometry x="1220" y="468" width="10" height="30" as="geometry" />
        </mxCell>
        <mxCell id="etzz7ZQ8cBHT2efS20bH-8" value="rc2.d" style="outlineConnect=0;fillColor=#ffff99;shape=mxgraph.archimate.businessObject;overflow=fill;spacing=25;spacingRight=0;spacingTop=9;spacingBottom=9;spacingLeft=5;html=1;whiteSpace=wrap;labelPosition=center;verticalLabelPosition=middle;align=center;verticalAlign=middle;fontSize=12;fontFamily=Verdana;" parent="1" vertex="1">
          <mxGeometry x="1220" y="408" width="140" height="60" as="geometry" />
        </mxCell>
        <mxCell id="etzz7ZQ8cBHT2efS20bH-9" value="" style="verticalLabelPosition=bottom;html=1;verticalAlign=top;align=center;shape=mxgraph.floorplan.wall;fillColor=strokeColor;direction=south;fontSize=16;fontFamily=Verdana;" parent="1" vertex="1">
          <mxGeometry x="1220" y="378" width="10" height="30" as="geometry" />
        </mxCell>
        <mxCell id="etzz7ZQ8cBHT2efS20bH-10" value="rc3.d" style="outlineConnect=0;fillColor=#ffff99;shape=mxgraph.archimate.businessObject;overflow=fill;spacing=25;spacingRight=0;spacingTop=9;spacingBottom=9;spacingLeft=5;html=1;whiteSpace=wrap;labelPosition=center;verticalLabelPosition=middle;align=center;verticalAlign=middle;fontSize=12;fontFamily=Verdana;" parent="1" vertex="1">
          <mxGeometry x="1220" y="318" width="140" height="60" as="geometry" />
        </mxCell>
        <mxCell id="etzz7ZQ8cBHT2efS20bH-11" value="" style="verticalLabelPosition=bottom;html=1;verticalAlign=top;align=center;shape=mxgraph.floorplan.wall;fillColor=strokeColor;direction=south;fontSize=16;fontFamily=Verdana;" parent="1" vertex="1">
          <mxGeometry x="1220" y="288" width="10" height="30" as="geometry" />
        </mxCell>
        <mxCell id="etzz7ZQ8cBHT2efS20bH-12" value="rc4.d" style="outlineConnect=0;fillColor=#ffff99;shape=mxgraph.archimate.businessObject;overflow=fill;spacing=25;spacingRight=0;spacingTop=9;spacingBottom=9;spacingLeft=5;html=1;whiteSpace=wrap;labelPosition=center;verticalLabelPosition=middle;align=center;verticalAlign=middle;fontSize=12;fontFamily=Verdana;" parent="1" vertex="1">
          <mxGeometry x="1220" y="228" width="140" height="60" as="geometry" />
        </mxCell>
        <mxCell id="etzz7ZQ8cBHT2efS20bH-13" value="" style="verticalLabelPosition=bottom;html=1;verticalAlign=top;align=center;shape=mxgraph.floorplan.wall;fillColor=strokeColor;direction=south;fontSize=16;fontFamily=Verdana;" parent="1" vertex="1">
          <mxGeometry x="1220" y="198" width="10" height="30" as="geometry" />
        </mxCell>
        <mxCell id="etzz7ZQ8cBHT2efS20bH-14" value="rc5.d" style="outlineConnect=0;fillColor=#ffff99;shape=mxgraph.archimate.businessObject;overflow=fill;spacing=25;spacingRight=0;spacingTop=9;spacingBottom=9;spacingLeft=5;html=1;whiteSpace=wrap;labelPosition=center;verticalLabelPosition=middle;align=center;verticalAlign=middle;fontSize=12;fontFamily=Verdana;" parent="1" vertex="1">
          <mxGeometry x="1220" y="138" width="140" height="60" as="geometry" />
        </mxCell>
        <mxCell id="etzz7ZQ8cBHT2efS20bH-15" value="" style="verticalLabelPosition=bottom;html=1;verticalAlign=top;align=center;shape=mxgraph.floorplan.wall;fillColor=strokeColor;direction=south;fontSize=16;fontFamily=Verdana;" parent="1" vertex="1">
          <mxGeometry x="1220" y="108" width="10" height="30" as="geometry" />
        </mxCell>
        <mxCell id="etzz7ZQ8cBHT2efS20bH-16" value="rc6.d" style="outlineConnect=0;fillColor=#ffff99;shape=mxgraph.archimate.businessObject;overflow=fill;spacing=25;spacingRight=0;spacingTop=9;spacingBottom=9;spacingLeft=5;html=1;whiteSpace=wrap;labelPosition=center;verticalLabelPosition=middle;align=center;verticalAlign=middle;fontSize=12;fontFamily=Verdana;" parent="1" vertex="1">
          <mxGeometry x="1220" y="48" width="140" height="60" as="geometry" />
        </mxCell>
        <mxCell id="etzz7ZQ8cBHT2efS20bH-17" value="" style="verticalLabelPosition=bottom;html=1;verticalAlign=top;align=center;shape=mxgraph.floorplan.wall;fillColor=strokeColor;direction=south;fontSize=16;fontFamily=Verdana;" parent="1" vertex="1">
          <mxGeometry x="1220" y="18" width="10" height="30" as="geometry" />
        </mxCell>
        <mxCell id="etzz7ZQ8cBHT2efS20bH-18" value="rcS.d" style="outlineConnect=0;fillColor=#ffff99;shape=mxgraph.archimate.businessObject;overflow=fill;spacing=25;spacingRight=0;spacingTop=9;spacingBottom=9;spacingLeft=5;html=1;whiteSpace=wrap;labelPosition=center;verticalLabelPosition=middle;align=center;verticalAlign=middle;fontSize=12;fontFamily=Verdana;" parent="1" vertex="1">
          <mxGeometry x="1220" y="-42" width="140" height="60" as="geometry" />
        </mxCell>
        <mxCell id="etzz7ZQ8cBHT2efS20bH-19" value="" style="verticalLabelPosition=bottom;html=1;verticalAlign=top;align=center;shape=mxgraph.floorplan.wall;fillColor=strokeColor;direction=south;fontSize=16;fontFamily=Verdana;" parent="1" vertex="1">
          <mxGeometry x="1220" y="-72" width="10" height="30" as="geometry" />
        </mxCell>
        <mxCell id="gFmoWF3cjkSiKpW6BkcZ-2" value="" style="verticalLabelPosition=bottom;html=1;verticalAlign=top;align=center;shape=mxgraph.floorplan.wall;fillColor=strokeColor;direction=south;fontSize=16;fontFamily=Verdana;" parent="1" vertex="1">
          <mxGeometry x="1580" y="830" width="10" height="30" as="geometry" />
        </mxCell>
        <mxCell id="gFmoWF3cjkSiKpW6BkcZ-3" value="&lt;div&gt;boot&lt;/div&gt;" style="outlineConnect=0;fillColor=#ffff99;shape=mxgraph.archimate.businessObject;overflow=fill;spacing=25;spacingRight=0;spacingTop=9;spacingBottom=9;spacingLeft=5;html=1;whiteSpace=wrap;labelPosition=center;verticalLabelPosition=middle;align=center;verticalAlign=middle;fontSize=12;fontFamily=Verdana;" parent="1" vertex="1">
          <mxGeometry x="1580" y="860" width="140" height="60" as="geometry" />
        </mxCell>
        <mxCell id="gFmoWF3cjkSiKpW6BkcZ-5" value="grub" style="outlineConnect=0;fillColor=#ffff99;shape=mxgraph.archimate.businessObject;overflow=fill;spacing=25;spacingRight=0;spacingTop=9;spacingBottom=9;spacingLeft=5;html=1;whiteSpace=wrap;labelPosition=center;verticalLabelPosition=middle;align=center;verticalAlign=middle;fontSize=12;fontFamily=Verdana;" parent="1" vertex="1">
          <mxGeometry x="1580" y="770" width="140" height="60" as="geometry" />
        </mxCell>
        <mxCell id="gFmoWF3cjkSiKpW6BkcZ-4" value="" style="shape=mxgraph.arrows2.wedgeArrow;html=1;bendable=0;startWidth=8.703703703703702;fillColor=strokeColor;defaultFillColor=invert;defaultGradientColor=invert;rounded=0;fontSize=12;startSize=8;endSize=8;curved=1;exitX=0.929;exitY=0.167;exitDx=0;exitDy=0;exitPerimeter=0;entryX=0.224;entryY=0.996;entryDx=0;entryDy=0;entryPerimeter=0;" parent="1" edge="1">
          <mxGeometry width="100" height="100" relative="1" as="geometry">
            <mxPoint x="1715.06" y="768.02" as="sourcePoint" />
            <mxPoint x="1760.3600000000001" y="739.76" as="targetPoint" />
          </mxGeometry>
        </mxCell>
        <mxCell id="gFmoWF3cjkSiKpW6BkcZ-8" value="" style="verticalLabelPosition=bottom;html=1;verticalAlign=top;align=center;shape=mxgraph.floorplan.wall;fillColor=strokeColor;direction=south;fontSize=16;fontFamily=Verdana;" parent="1" vertex="1">
          <mxGeometry x="1580" y="740" width="10" height="30" as="geometry" />
        </mxCell>
        <mxCell id="UHulExDoLJq-W7tsx6bJ-2" value="default" style="outlineConnect=0;fillColor=#ffff99;shape=mxgraph.archimate.businessObject;overflow=fill;spacing=25;spacingRight=0;spacingTop=9;spacingBottom=9;spacingLeft=5;html=1;whiteSpace=wrap;labelPosition=center;verticalLabelPosition=middle;align=center;verticalAlign=middle;fontSize=12;fontFamily=Verdana;" parent="1" vertex="1">
          <mxGeometry x="1220" y="-132" width="140" height="60" as="geometry" />
        </mxCell>
        <mxCell id="UHulExDoLJq-W7tsx6bJ-3" value="" style="verticalLabelPosition=bottom;html=1;verticalAlign=top;align=center;shape=mxgraph.floorplan.wall;fillColor=strokeColor;direction=south;fontSize=16;fontFamily=Verdana;" parent="1" vertex="1">
          <mxGeometry x="1220" y="-163" width="10" height="30" as="geometry" />
        </mxCell>
        <mxCell id="UHulExDoLJq-W7tsx6bJ-5" value="group" style="whiteSpace=wrap;html=1;shape=mxgraph.basic.document;fontSize=13;" parent="1" vertex="1">
          <mxGeometry x="1220" y="-403" width="70" height="60" as="geometry" />
        </mxCell>
        <mxCell id="UHulExDoLJq-W7tsx6bJ-1" value="" style="shape=mxgraph.arrows2.wedgeArrow;html=1;bendable=0;startWidth=8.703703703703702;fillColor=strokeColor;defaultFillColor=invert;defaultGradientColor=invert;rounded=0;fontSize=12;startSize=8;endSize=8;curved=1;exitX=0.929;exitY=0.167;exitDx=0;exitDy=0;exitPerimeter=0;entryX=0.224;entryY=0.996;entryDx=0;entryDy=0;entryPerimeter=0;" parent="1" edge="1">
          <mxGeometry width="100" height="100" relative="1" as="geometry">
            <mxPoint x="1355.06" y="-133.98000000000002" as="sourcePoint" />
            <mxPoint x="1400.3600000000001" y="-162.24" as="targetPoint" />
          </mxGeometry>
        </mxCell>
        <mxCell id="75rv8cHXRzItHxNpvy03-1" value="sysctl.conf" style="whiteSpace=wrap;html=1;shape=mxgraph.basic.document;fontSize=13;" parent="1" vertex="1">
          <mxGeometry x="1220" y="-585" width="70" height="60" as="geometry" />
        </mxCell>
        <mxCell id="75rv8cHXRzItHxNpvy03-2" value="" style="verticalLabelPosition=bottom;html=1;verticalAlign=top;align=center;shape=mxgraph.floorplan.wall;fillColor=strokeColor;direction=south;fontSize=16;fontFamily=Verdana;" parent="1" vertex="1">
          <mxGeometry x="1220" y="-433" width="10" height="30" as="geometry" />
        </mxCell>
        <mxCell id="cSbqJj07aHRJ3EV0fE6i-1" value="grub.d" style="whiteSpace=wrap;html=1;shape=mxgraph.basic.document;fontSize=13;" parent="1" vertex="1">
          <mxGeometry x="1220" y="-676" width="70" height="60" as="geometry" />
        </mxCell>
        <mxCell id="cSbqJj07aHRJ3EV0fE6i-2" value="" style="verticalLabelPosition=bottom;html=1;verticalAlign=top;align=center;shape=mxgraph.floorplan.wall;fillColor=strokeColor;direction=south;fontSize=16;fontFamily=Verdana;" parent="1" vertex="1">
          <mxGeometry x="1220" y="-616" width="10" height="30" as="geometry" />
        </mxCell>
        <mxCell id="KRZMmwawRqASeaeSw63z-1" value="apt" style="outlineConnect=0;fillColor=#ffff99;shape=mxgraph.archimate.businessObject;overflow=fill;spacing=25;spacingRight=0;spacingTop=9;spacingBottom=9;spacingLeft=5;html=1;whiteSpace=wrap;labelPosition=center;verticalLabelPosition=middle;align=center;verticalAlign=middle;fontSize=12;fontFamily=Verdana;" parent="1" vertex="1">
          <mxGeometry x="1220" y="679" width="140" height="60" as="geometry" />
        </mxCell>
        <mxCell id="KRZMmwawRqASeaeSw63z-3" value="&lt;font style=&quot;font-size: 9px;&quot;&gt;sources.list.d&lt;/font&gt;" style="outlineConnect=0;fillColor=#ffff99;shape=mxgraph.archimate.businessObject;overflow=fill;spacing=25;spacingRight=0;spacingTop=9;spacingBottom=9;spacingLeft=5;html=1;whiteSpace=wrap;labelPosition=center;verticalLabelPosition=middle;align=center;verticalAlign=middle;fontSize=12;fontFamily=Verdana;" parent="1" vertex="1">
          <mxGeometry x="1370" y="588.05" width="70" height="60" as="geometry" />
        </mxCell>
        <mxCell id="KRZMmwawRqASeaeSw63z-4" value="" style="verticalLabelPosition=bottom;html=1;verticalAlign=top;align=center;shape=mxgraph.floorplan.wall;fillColor=strokeColor;direction=south;fontSize=16;fontFamily=Verdana;" parent="1" vertex="1">
          <mxGeometry x="1370" y="558.05" width="10" height="30" as="geometry" />
        </mxCell>
        <mxCell id="KRZMmwawRqASeaeSw63z-7" value="" style="verticalLabelPosition=bottom;html=1;verticalAlign=top;align=center;shape=mxgraph.floorplan.wall;fillColor=strokeColor;direction=south;fontSize=16;fontFamily=Verdana;" parent="1" vertex="1">
          <mxGeometry x="1220" y="648" width="10" height="30" as="geometry" />
        </mxCell>
        <mxCell id="obx4LxaeS1nJqC5iqsvq-1" value="passwd" style="whiteSpace=wrap;html=1;shape=mxgraph.basic.document;fontSize=13;" parent="1" vertex="1">
          <mxGeometry x="1220" y="-223" width="70" height="60" as="geometry" />
        </mxCell>
        <mxCell id="obx4LxaeS1nJqC5iqsvq-2" value="" style="verticalLabelPosition=bottom;html=1;verticalAlign=top;align=center;shape=mxgraph.floorplan.wall;fillColor=strokeColor;direction=south;fontSize=16;fontFamily=Verdana;" parent="1" vertex="1">
          <mxGeometry x="1220" y="-253" width="10" height="30" as="geometry" />
        </mxCell>
        <mxCell id="obx4LxaeS1nJqC5iqsvq-3" value="&lt;span&gt;ld.so.conf&lt;/span&gt;&lt;span dir=&quot;RTL&quot;&gt;&lt;span&gt;&lt;br&gt;&lt;/span&gt;&lt;/span&gt;" style="whiteSpace=wrap;html=1;shape=mxgraph.basic.document;fontSize=13;" parent="1" vertex="1">
          <mxGeometry x="1220" y="-766" width="70" height="60" as="geometry" />
        </mxCell>
        <mxCell id="obx4LxaeS1nJqC5iqsvq-4" value="ld.so.cache" style="whiteSpace=wrap;html=1;shape=mxgraph.basic.document;fontSize=13;" parent="1" vertex="1">
          <mxGeometry x="1220" y="-857" width="70" height="60" as="geometry" />
        </mxCell>
        <mxCell id="obx4LxaeS1nJqC5iqsvq-5" value="" style="verticalLabelPosition=bottom;html=1;verticalAlign=top;align=center;shape=mxgraph.floorplan.wall;fillColor=strokeColor;direction=south;fontSize=16;fontFamily=Verdana;" parent="1" vertex="1">
          <mxGeometry x="1220" y="-797" width="10" height="30" as="geometry" />
        </mxCell>
        <mxCell id="obx4LxaeS1nJqC5iqsvq-6" value="" style="verticalLabelPosition=bottom;html=1;verticalAlign=top;align=center;shape=mxgraph.floorplan.wall;fillColor=strokeColor;direction=south;fontSize=16;fontFamily=Verdana;" parent="1" vertex="1">
          <mxGeometry x="1220" y="-706" width="10" height="30" as="geometry" />
        </mxCell>
        <mxCell id="obx4LxaeS1nJqC5iqsvq-9" value="profile" style="whiteSpace=wrap;html=1;shape=mxgraph.basic.document;fontSize=13;" parent="1" vertex="1">
          <mxGeometry x="1220" y="-493" width="70" height="60" as="geometry" />
        </mxCell>
        <mxCell id="obx4LxaeS1nJqC5iqsvq-10" value="" style="verticalLabelPosition=bottom;html=1;verticalAlign=top;align=center;shape=mxgraph.floorplan.wall;fillColor=strokeColor;direction=south;fontSize=16;fontFamily=Verdana;" parent="1" vertex="1">
          <mxGeometry x="1220" y="-524" width="10" height="30" as="geometry" />
        </mxCell>
        <mxCell id="npKKA7q-95rAuHakI6Xw-1" value="spool" style="outlineConnect=0;fillColor=#ffff99;shape=mxgraph.archimate.businessObject;overflow=fill;spacing=25;spacingRight=0;spacingTop=9;spacingBottom=9;spacingLeft=5;html=1;whiteSpace=wrap;labelPosition=center;verticalLabelPosition=middle;align=center;verticalAlign=middle;fontSize=12;fontFamily=Verdana;" vertex="1" parent="1">
          <mxGeometry x="1870" y="677" width="140" height="60" as="geometry" />
        </mxCell>
        <mxCell id="npKKA7q-95rAuHakI6Xw-2" value="" style="verticalLabelPosition=bottom;html=1;verticalAlign=top;align=center;shape=mxgraph.floorplan.wall;fillColor=strokeColor;direction=south;fontSize=16;fontFamily=Verdana;" vertex="1" parent="1">
          <mxGeometry x="1870" y="738" width="10" height="30" as="geometry" />
        </mxCell>
        <mxCell id="npKKA7q-95rAuHakI6Xw-3" value="" style="verticalLabelPosition=bottom;html=1;verticalAlign=top;align=center;shape=mxgraph.floorplan.wall;fillColor=strokeColor;direction=south;fontSize=16;fontFamily=Verdana;" vertex="1" parent="1">
          <mxGeometry x="1870" y="738" width="10" height="30" as="geometry" />
        </mxCell>
        <mxCell id="npKKA7q-95rAuHakI6Xw-4" value="dmesg" style="whiteSpace=wrap;html=1;shape=mxgraph.basic.document;fontSize=13;" vertex="1" parent="1">
          <mxGeometry x="2025.94" y="689" width="57.06" height="48" as="geometry" />
        </mxCell>
        <mxCell id="npKKA7q-95rAuHakI6Xw-5" value="" style="shape=mxgraph.arrows2.wedgeArrow;html=1;bendable=0;startWidth=8.703703703703702;fillColor=strokeColor;defaultFillColor=invert;defaultGradientColor=invert;rounded=0;fontSize=12;startSize=8;endSize=8;curved=1;exitX=0.929;exitY=0.167;exitDx=0;exitDy=0;exitPerimeter=0;entryX=0.224;entryY=0.996;entryDx=0;entryDy=0;entryPerimeter=0;" edge="1" parent="1">
          <mxGeometry width="100" height="100" relative="1" as="geometry">
            <mxPoint x="2005" y="767.02" as="sourcePoint" />
            <mxPoint x="2050.3" y="738.76" as="targetPoint" />
          </mxGeometry>
        </mxCell>
        <mxCell id="npKKA7q-95rAuHakI6Xw-6" value="" style="shape=mxgraph.arrows2.wedgeArrow;html=1;bendable=0;startWidth=8.703703703703702;fillColor=strokeColor;defaultFillColor=invert;defaultGradientColor=invert;rounded=0;fontSize=12;startSize=8;endSize=8;curved=1;exitX=0.929;exitY=0.167;exitDx=0;exitDy=0;exitPerimeter=0;entryX=0.224;entryY=0.996;entryDx=0;entryDy=0;entryPerimeter=0;" edge="1" parent="1">
          <mxGeometry width="100" height="100" relative="1" as="geometry">
            <mxPoint x="2005.29" y="677.26" as="sourcePoint" />
            <mxPoint x="2050.59" y="649" as="targetPoint" />
          </mxGeometry>
        </mxCell>
        <mxCell id="npKKA7q-95rAuHakI6Xw-7" value="kern.log" style="whiteSpace=wrap;html=1;shape=mxgraph.basic.document;fontSize=13;" vertex="1" parent="1">
          <mxGeometry x="2091" y="689" width="57.06" height="48" as="geometry" />
        </mxCell>
        <mxCell id="npKKA7q-95rAuHakI6Xw-9" value="" style="endArrow=none;html=1;rounded=0;exitX=1;exitY=0.5;exitDx=0;exitDy=0;exitPerimeter=0;entryX=0;entryY=0.5;entryDx=0;entryDy=0;entryPerimeter=0;" edge="1" parent="1" source="npKKA7q-95rAuHakI6Xw-4" target="npKKA7q-95rAuHakI6Xw-7">
          <mxGeometry width="50" height="50" relative="1" as="geometry">
            <mxPoint x="2052" y="759" as="sourcePoint" />
            <mxPoint x="2102" y="709" as="targetPoint" />
          </mxGeometry>
        </mxCell>
        <mxCell id="npKKA7q-95rAuHakI6Xw-10" value="&lt;font style=&quot;font-size: 10px;&quot;&gt;cron&lt;/font&gt;" style="outlineConnect=0;fillColor=#ffff99;shape=mxgraph.archimate.businessObject;overflow=fill;spacing=25;spacingRight=0;spacingTop=9;spacingBottom=9;spacingLeft=5;html=1;whiteSpace=wrap;labelPosition=center;verticalLabelPosition=middle;align=center;verticalAlign=middle;fontSize=12;fontFamily=Verdana;" vertex="1" parent="1">
          <mxGeometry x="2024.94" y="587" width="70.06" height="60" as="geometry" />
        </mxCell>
        <mxCell id="npKKA7q-95rAuHakI6Xw-13" value="" style="shape=mxgraph.arrows2.wedgeArrow;html=1;bendable=0;startWidth=8.703703703703702;fillColor=strokeColor;defaultFillColor=invert;defaultGradientColor=invert;rounded=0;fontSize=12;startSize=8;endSize=8;curved=1;exitX=0.929;exitY=0.167;exitDx=0;exitDy=0;exitPerimeter=0;entryX=0.224;entryY=0.996;entryDx=0;entryDy=0;entryPerimeter=0;" edge="1" parent="1">
          <mxGeometry width="100" height="100" relative="1" as="geometry">
            <mxPoint x="2090" y="587.13" as="sourcePoint" />
            <mxPoint x="2135.3" y="558.87" as="targetPoint" />
          </mxGeometry>
        </mxCell>
        <mxCell id="npKKA7q-95rAuHakI6Xw-14" value="&lt;font style=&quot;font-size: 10px;&quot;&gt;crontabs&lt;/font&gt;" style="outlineConnect=0;fillColor=#ffff99;shape=mxgraph.archimate.businessObject;overflow=fill;spacing=25;spacingRight=0;spacingTop=9;spacingBottom=9;spacingLeft=5;html=1;whiteSpace=wrap;labelPosition=center;verticalLabelPosition=middle;align=center;verticalAlign=middle;fontSize=12;fontFamily=Verdana;" vertex="1" parent="1">
          <mxGeometry x="2103" y="497" width="70.06" height="60" as="geometry" />
        </mxCell>
        <mxCell id="npKKA7q-95rAuHakI6Xw-15" value="grub.cfg" style="whiteSpace=wrap;html=1;shape=mxgraph.basic.document;fontSize=13;" vertex="1" parent="1">
          <mxGeometry x="1733" y="690" width="57.06" height="48" as="geometry" />
        </mxCell>
        <mxCell id="npKKA7q-95rAuHakI6Xw-17" value="&lt;font style=&quot;font-size: 9px;&quot;&gt;sources.list&lt;/font&gt;" style="whiteSpace=wrap;html=1;shape=mxgraph.basic.document;fontSize=13;" vertex="1" parent="1">
          <mxGeometry x="1370" y="510.04999999999995" width="57.06" height="48" as="geometry" />
        </mxCell>
        <mxCell id="npKKA7q-95rAuHakI6Xw-18" value="grub" style="whiteSpace=wrap;html=1;shape=mxgraph.basic.document;fontSize=13;" vertex="1" parent="1">
          <mxGeometry x="1372.47" y="-211" width="57.06" height="48" as="geometry" />
        </mxCell>
        <mxCell id="npKKA7q-95rAuHakI6Xw-19" value="&lt;font style=&quot;font-size: 10px;&quot;&gt;System&lt;/font&gt;" style="outlineConnect=0;fillColor=#ffff99;shape=mxgraph.archimate.businessObject;overflow=fill;spacing=25;spacingRight=0;spacingTop=9;spacingBottom=9;spacingLeft=5;html=1;whiteSpace=wrap;labelPosition=center;verticalLabelPosition=middle;align=center;verticalAlign=middle;fontSize=12;fontFamily=Verdana;" vertex="1" parent="1">
          <mxGeometry x="1010" y="680" width="70" height="60" as="geometry" />
        </mxCell>
        <mxCell id="npKKA7q-95rAuHakI6Xw-20" value="" style="verticalLabelPosition=bottom;html=1;verticalAlign=top;align=center;shape=mxgraph.floorplan.wall;fillColor=strokeColor;direction=south;fontSize=16;fontFamily=Verdana;" vertex="1" parent="1">
          <mxGeometry x="230" y="739" width="10" height="30" as="geometry" />
        </mxCell>
        <mxCell id="npKKA7q-95rAuHakI6Xw-21" value="" style="verticalLabelPosition=bottom;html=1;verticalAlign=top;align=center;shape=mxgraph.floorplan.wall;fillColor=strokeColor;direction=south;fontSize=16;fontFamily=Verdana;" vertex="1" parent="1">
          <mxGeometry x="230" y="647" width="10" height="30" as="geometry" />
        </mxCell>
        <mxCell id="npKKA7q-95rAuHakI6Xw-22" value="" style="verticalLabelPosition=bottom;html=1;verticalAlign=top;align=center;shape=mxgraph.floorplan.wall;fillColor=strokeColor;direction=south;fontSize=16;fontFamily=Verdana;" vertex="1" parent="1">
          <mxGeometry x="230" y="556" width="10" height="30" as="geometry" />
        </mxCell>
        <mxCell id="npKKA7q-95rAuHakI6Xw-23" value="" style="shape=mxgraph.arrows2.wedgeArrow;html=1;bendable=0;startWidth=8.703703703703702;fillColor=strokeColor;defaultFillColor=invert;defaultGradientColor=invert;rounded=0;fontSize=12;startSize=8;endSize=8;curved=1;exitX=1;exitY=0;exitDx=-2.9;exitDy=2.9;exitPerimeter=0;entryX=0.5;entryY=1;entryDx=0;entryDy=0;entryPerimeter=0;" edge="1" parent="1">
          <mxGeometry width="100" height="100" relative="1" as="geometry">
            <mxPoint x="1355.5" y="677.9999999999998" as="sourcePoint" />
            <mxPoint x="1404.5" y="650.05" as="targetPoint" />
          </mxGeometry>
        </mxCell>
      </root>
    </mxGraphModel>
  </diagram>
</mxfile>
